<?xml version="1.0" encoding="utf-8" standalone="no"?>
<!DOCTYPE svg PUBLIC "-//W3C//DTD SVG 1.1//EN"
  "http://www.w3.org/Graphics/SVG/1.1/DTD/svg11.dtd">
<svg xmlns:xlink="http://www.w3.org/1999/xlink" width="413.324687pt" height="297.190125pt" viewBox="0 0 413.324687 297.190125" xmlns="http://www.w3.org/2000/svg" version="1.1">
 <metadata>
  <rdf:RDF xmlns:dc="http://purl.org/dc/elements/1.1/" xmlns:cc="http://creativecommons.org/ns#" xmlns:rdf="http://www.w3.org/1999/02/22-rdf-syntax-ns#">
   <cc:Work>
    <dc:type rdf:resource="http://purl.org/dc/dcmitype/StillImage"/>
    <dc:date>2023-11-21T23:44:47.125400</dc:date>
    <dc:format>image/svg+xml</dc:format>
    <dc:creator>
     <cc:Agent>
      <dc:title>Matplotlib v3.8.2, https://matplotlib.org/</dc:title>
     </cc:Agent>
    </dc:creator>
   </cc:Work>
  </rdf:RDF>
 </metadata>
 <defs>
  <style type="text/css">*{stroke-linejoin: round; stroke-linecap: butt}</style>
 </defs>
 <g id="figure_1">
  <g id="patch_1">
   <path d="M 0 297.190125 
L 413.324687 297.190125 
L 413.324687 0 
L 0 0 
z
" style="fill: #ffffff"/>
  </g>
  <g id="axes_1">
   <g id="patch_2">
    <path d="M 49.004688 273.312 
L 406.124688 273.312 
L 406.124688 7.2 
L 49.004688 7.2 
z
" style="fill: #ffffff"/>
   </g>
   <g id="matplotlib.axis_1">
    <g id="xtick_1">
     <g id="line2d_1">
      <path d="M 65.237415 273.312 
L 65.237415 7.2 
" clip-path="url(#p397b30a95f)" style="fill: none; stroke: #b0b0b0; stroke-width: 0.8; stroke-linecap: square"/>
     </g>
     <g id="line2d_2">
      <defs>
       <path id="mbcdd7de11c" d="M 0 0 
L 0 3.5 
" style="stroke: #000000; stroke-width: 0.8"/>
      </defs>
      <g>
       <use xlink:href="#mbcdd7de11c" x="65.237415" y="273.312" style="stroke: #000000; stroke-width: 0.8"/>
      </g>
     </g>
     <g id="text_1">
      <!-- 0 -->
      <g transform="translate(62.056165 287.910437) scale(0.1 -0.1)">
       <defs>
        <path id="DejaVuSans-30" d="M 2034 4250 
Q 1547 4250 1301 3770 
Q 1056 3291 1056 2328 
Q 1056 1369 1301 889 
Q 1547 409 2034 409 
Q 2525 409 2770 889 
Q 3016 1369 3016 2328 
Q 3016 3291 2770 3770 
Q 2525 4250 2034 4250 
z
M 2034 4750 
Q 2819 4750 3233 4129 
Q 3647 3509 3647 2328 
Q 3647 1150 3233 529 
Q 2819 -91 2034 -91 
Q 1250 -91 836 529 
Q 422 1150 422 2328 
Q 422 3509 836 4129 
Q 1250 4750 2034 4750 
z
" transform="scale(0.015625)"/>
       </defs>
       <use xlink:href="#DejaVuSans-30"/>
      </g>
     </g>
    </g>
    <g id="xtick_2">
     <g id="line2d_3">
      <path d="M 135.81449 273.312 
L 135.81449 7.2 
" clip-path="url(#p397b30a95f)" style="fill: none; stroke: #b0b0b0; stroke-width: 0.8; stroke-linecap: square"/>
     </g>
     <g id="line2d_4">
      <g>
       <use xlink:href="#mbcdd7de11c" x="135.81449" y="273.312" style="stroke: #000000; stroke-width: 0.8"/>
      </g>
     </g>
     <g id="text_2">
      <!-- 1000 -->
      <g transform="translate(123.08949 287.910437) scale(0.1 -0.1)">
       <defs>
        <path id="DejaVuSans-31" d="M 794 531 
L 1825 531 
L 1825 4091 
L 703 3866 
L 703 4441 
L 1819 4666 
L 2450 4666 
L 2450 531 
L 3481 531 
L 3481 0 
L 794 0 
L 794 531 
z
" transform="scale(0.015625)"/>
       </defs>
       <use xlink:href="#DejaVuSans-31"/>
       <use xlink:href="#DejaVuSans-30" x="63.623047"/>
       <use xlink:href="#DejaVuSans-30" x="127.246094"/>
       <use xlink:href="#DejaVuSans-30" x="190.869141"/>
      </g>
     </g>
    </g>
    <g id="xtick_3">
     <g id="line2d_5">
      <path d="M 206.391565 273.312 
L 206.391565 7.2 
" clip-path="url(#p397b30a95f)" style="fill: none; stroke: #b0b0b0; stroke-width: 0.8; stroke-linecap: square"/>
     </g>
     <g id="line2d_6">
      <g>
       <use xlink:href="#mbcdd7de11c" x="206.391565" y="273.312" style="stroke: #000000; stroke-width: 0.8"/>
      </g>
     </g>
     <g id="text_3">
      <!-- 2000 -->
      <g transform="translate(193.666565 287.910437) scale(0.1 -0.1)">
       <defs>
        <path id="DejaVuSans-32" d="M 1228 531 
L 3431 531 
L 3431 0 
L 469 0 
L 469 531 
Q 828 903 1448 1529 
Q 2069 2156 2228 2338 
Q 2531 2678 2651 2914 
Q 2772 3150 2772 3378 
Q 2772 3750 2511 3984 
Q 2250 4219 1831 4219 
Q 1534 4219 1204 4116 
Q 875 4013 500 3803 
L 500 4441 
Q 881 4594 1212 4672 
Q 1544 4750 1819 4750 
Q 2544 4750 2975 4387 
Q 3406 4025 3406 3419 
Q 3406 3131 3298 2873 
Q 3191 2616 2906 2266 
Q 2828 2175 2409 1742 
Q 1991 1309 1228 531 
z
" transform="scale(0.015625)"/>
       </defs>
       <use xlink:href="#DejaVuSans-32"/>
       <use xlink:href="#DejaVuSans-30" x="63.623047"/>
       <use xlink:href="#DejaVuSans-30" x="127.246094"/>
       <use xlink:href="#DejaVuSans-30" x="190.869141"/>
      </g>
     </g>
    </g>
    <g id="xtick_4">
     <g id="line2d_7">
      <path d="M 276.96864 273.312 
L 276.96864 7.2 
" clip-path="url(#p397b30a95f)" style="fill: none; stroke: #b0b0b0; stroke-width: 0.8; stroke-linecap: square"/>
     </g>
     <g id="line2d_8">
      <g>
       <use xlink:href="#mbcdd7de11c" x="276.96864" y="273.312" style="stroke: #000000; stroke-width: 0.8"/>
      </g>
     </g>
     <g id="text_4">
      <!-- 3000 -->
      <g transform="translate(264.24364 287.910437) scale(0.1 -0.1)">
       <defs>
        <path id="DejaVuSans-33" d="M 2597 2516 
Q 3050 2419 3304 2112 
Q 3559 1806 3559 1356 
Q 3559 666 3084 287 
Q 2609 -91 1734 -91 
Q 1441 -91 1130 -33 
Q 819 25 488 141 
L 488 750 
Q 750 597 1062 519 
Q 1375 441 1716 441 
Q 2309 441 2620 675 
Q 2931 909 2931 1356 
Q 2931 1769 2642 2001 
Q 2353 2234 1838 2234 
L 1294 2234 
L 1294 2753 
L 1863 2753 
Q 2328 2753 2575 2939 
Q 2822 3125 2822 3475 
Q 2822 3834 2567 4026 
Q 2313 4219 1838 4219 
Q 1578 4219 1281 4162 
Q 984 4106 628 3988 
L 628 4550 
Q 988 4650 1302 4700 
Q 1616 4750 1894 4750 
Q 2613 4750 3031 4423 
Q 3450 4097 3450 3541 
Q 3450 3153 3228 2886 
Q 3006 2619 2597 2516 
z
" transform="scale(0.015625)"/>
       </defs>
       <use xlink:href="#DejaVuSans-33"/>
       <use xlink:href="#DejaVuSans-30" x="63.623047"/>
       <use xlink:href="#DejaVuSans-30" x="127.246094"/>
       <use xlink:href="#DejaVuSans-30" x="190.869141"/>
      </g>
     </g>
    </g>
    <g id="xtick_5">
     <g id="line2d_9">
      <path d="M 347.545715 273.312 
L 347.545715 7.2 
" clip-path="url(#p397b30a95f)" style="fill: none; stroke: #b0b0b0; stroke-width: 0.8; stroke-linecap: square"/>
     </g>
     <g id="line2d_10">
      <g>
       <use xlink:href="#mbcdd7de11c" x="347.545715" y="273.312" style="stroke: #000000; stroke-width: 0.8"/>
      </g>
     </g>
     <g id="text_5">
      <!-- 4000 -->
      <g transform="translate(334.820715 287.910437) scale(0.1 -0.1)">
       <defs>
        <path id="DejaVuSans-34" d="M 2419 4116 
L 825 1625 
L 2419 1625 
L 2419 4116 
z
M 2253 4666 
L 3047 4666 
L 3047 1625 
L 3713 1625 
L 3713 1100 
L 3047 1100 
L 3047 0 
L 2419 0 
L 2419 1100 
L 313 1100 
L 313 1709 
L 2253 4666 
z
" transform="scale(0.015625)"/>
       </defs>
       <use xlink:href="#DejaVuSans-34"/>
       <use xlink:href="#DejaVuSans-30" x="63.623047"/>
       <use xlink:href="#DejaVuSans-30" x="127.246094"/>
       <use xlink:href="#DejaVuSans-30" x="190.869141"/>
      </g>
     </g>
    </g>
   </g>
   <g id="matplotlib.axis_2">
    <g id="ytick_1">
     <g id="line2d_11">
      <path d="M 49.004688 266.900137 
L 406.124688 266.900137 
" clip-path="url(#p397b30a95f)" style="fill: none; stroke: #b0b0b0; stroke-width: 0.8; stroke-linecap: square"/>
     </g>
     <g id="line2d_12">
      <defs>
       <path id="m6f9c1dcde0" d="M 0 0 
L -3.5 0 
" style="stroke: #000000; stroke-width: 0.8"/>
      </defs>
      <g>
       <use xlink:href="#m6f9c1dcde0" x="49.004688" y="266.900137" style="stroke: #000000; stroke-width: 0.8"/>
      </g>
     </g>
     <g id="text_6">
      <!-- −60 -->
      <g transform="translate(20.9 270.699356) scale(0.1 -0.1)">
       <defs>
        <path id="DejaVuSans-2212" d="M 678 2272 
L 4684 2272 
L 4684 1741 
L 678 1741 
L 678 2272 
z
" transform="scale(0.015625)"/>
        <path id="DejaVuSans-36" d="M 2113 2584 
Q 1688 2584 1439 2293 
Q 1191 2003 1191 1497 
Q 1191 994 1439 701 
Q 1688 409 2113 409 
Q 2538 409 2786 701 
Q 3034 994 3034 1497 
Q 3034 2003 2786 2293 
Q 2538 2584 2113 2584 
z
M 3366 4563 
L 3366 3988 
Q 3128 4100 2886 4159 
Q 2644 4219 2406 4219 
Q 1781 4219 1451 3797 
Q 1122 3375 1075 2522 
Q 1259 2794 1537 2939 
Q 1816 3084 2150 3084 
Q 2853 3084 3261 2657 
Q 3669 2231 3669 1497 
Q 3669 778 3244 343 
Q 2819 -91 2113 -91 
Q 1303 -91 875 529 
Q 447 1150 447 2328 
Q 447 3434 972 4092 
Q 1497 4750 2381 4750 
Q 2619 4750 2861 4703 
Q 3103 4656 3366 4563 
z
" transform="scale(0.015625)"/>
       </defs>
       <use xlink:href="#DejaVuSans-2212"/>
       <use xlink:href="#DejaVuSans-36" x="83.789062"/>
       <use xlink:href="#DejaVuSans-30" x="147.412109"/>
      </g>
     </g>
    </g>
    <g id="ytick_2">
     <g id="line2d_13">
      <path d="M 49.004688 232.18606 
L 406.124688 232.18606 
" clip-path="url(#p397b30a95f)" style="fill: none; stroke: #b0b0b0; stroke-width: 0.8; stroke-linecap: square"/>
     </g>
     <g id="line2d_14">
      <g>
       <use xlink:href="#m6f9c1dcde0" x="49.004688" y="232.18606" style="stroke: #000000; stroke-width: 0.8"/>
      </g>
     </g>
     <g id="text_7">
      <!-- −40 -->
      <g transform="translate(20.9 235.985278) scale(0.1 -0.1)">
       <use xlink:href="#DejaVuSans-2212"/>
       <use xlink:href="#DejaVuSans-34" x="83.789062"/>
       <use xlink:href="#DejaVuSans-30" x="147.412109"/>
      </g>
     </g>
    </g>
    <g id="ytick_3">
     <g id="line2d_15">
      <path d="M 49.004688 197.471982 
L 406.124688 197.471982 
" clip-path="url(#p397b30a95f)" style="fill: none; stroke: #b0b0b0; stroke-width: 0.8; stroke-linecap: square"/>
     </g>
     <g id="line2d_16">
      <g>
       <use xlink:href="#m6f9c1dcde0" x="49.004688" y="197.471982" style="stroke: #000000; stroke-width: 0.8"/>
      </g>
     </g>
     <g id="text_8">
      <!-- −20 -->
      <g transform="translate(20.9 201.271201) scale(0.1 -0.1)">
       <use xlink:href="#DejaVuSans-2212"/>
       <use xlink:href="#DejaVuSans-32" x="83.789062"/>
       <use xlink:href="#DejaVuSans-30" x="147.412109"/>
      </g>
     </g>
    </g>
    <g id="ytick_4">
     <g id="line2d_17">
      <path d="M 49.004688 162.757904 
L 406.124688 162.757904 
" clip-path="url(#p397b30a95f)" style="fill: none; stroke: #b0b0b0; stroke-width: 0.8; stroke-linecap: square"/>
     </g>
     <g id="line2d_18">
      <g>
       <use xlink:href="#m6f9c1dcde0" x="49.004688" y="162.757904" style="stroke: #000000; stroke-width: 0.8"/>
      </g>
     </g>
     <g id="text_9">
      <!-- 0 -->
      <g transform="translate(35.642188 166.557123) scale(0.1 -0.1)">
       <use xlink:href="#DejaVuSans-30"/>
      </g>
     </g>
    </g>
    <g id="ytick_5">
     <g id="line2d_19">
      <path d="M 49.004688 128.043826 
L 406.124688 128.043826 
" clip-path="url(#p397b30a95f)" style="fill: none; stroke: #b0b0b0; stroke-width: 0.8; stroke-linecap: square"/>
     </g>
     <g id="line2d_20">
      <g>
       <use xlink:href="#m6f9c1dcde0" x="49.004688" y="128.043826" style="stroke: #000000; stroke-width: 0.8"/>
      </g>
     </g>
     <g id="text_10">
      <!-- 20 -->
      <g transform="translate(29.279688 131.843045) scale(0.1 -0.1)">
       <use xlink:href="#DejaVuSans-32"/>
       <use xlink:href="#DejaVuSans-30" x="63.623047"/>
      </g>
     </g>
    </g>
    <g id="ytick_6">
     <g id="line2d_21">
      <path d="M 49.004688 93.329749 
L 406.124688 93.329749 
" clip-path="url(#p397b30a95f)" style="fill: none; stroke: #b0b0b0; stroke-width: 0.8; stroke-linecap: square"/>
     </g>
     <g id="line2d_22">
      <g>
       <use xlink:href="#m6f9c1dcde0" x="49.004688" y="93.329749" style="stroke: #000000; stroke-width: 0.8"/>
      </g>
     </g>
     <g id="text_11">
      <!-- 40 -->
      <g transform="translate(29.279688 97.128967) scale(0.1 -0.1)">
       <use xlink:href="#DejaVuSans-34"/>
       <use xlink:href="#DejaVuSans-30" x="63.623047"/>
      </g>
     </g>
    </g>
    <g id="ytick_7">
     <g id="line2d_23">
      <path d="M 49.004688 58.615671 
L 406.124688 58.615671 
" clip-path="url(#p397b30a95f)" style="fill: none; stroke: #b0b0b0; stroke-width: 0.8; stroke-linecap: square"/>
     </g>
     <g id="line2d_24">
      <g>
       <use xlink:href="#m6f9c1dcde0" x="49.004688" y="58.615671" style="stroke: #000000; stroke-width: 0.8"/>
      </g>
     </g>
     <g id="text_12">
      <!-- 60 -->
      <g transform="translate(29.279688 62.41489) scale(0.1 -0.1)">
       <use xlink:href="#DejaVuSans-36"/>
       <use xlink:href="#DejaVuSans-30" x="63.623047"/>
      </g>
     </g>
    </g>
    <g id="ytick_8">
     <g id="line2d_25">
      <path d="M 49.004688 23.901593 
L 406.124688 23.901593 
" clip-path="url(#p397b30a95f)" style="fill: none; stroke: #b0b0b0; stroke-width: 0.8; stroke-linecap: square"/>
     </g>
     <g id="line2d_26">
      <g>
       <use xlink:href="#m6f9c1dcde0" x="49.004688" y="23.901593" style="stroke: #000000; stroke-width: 0.8"/>
      </g>
     </g>
     <g id="text_13">
      <!-- 80 -->
      <g transform="translate(29.279688 27.700812) scale(0.1 -0.1)">
       <defs>
        <path id="DejaVuSans-38" d="M 2034 2216 
Q 1584 2216 1326 1975 
Q 1069 1734 1069 1313 
Q 1069 891 1326 650 
Q 1584 409 2034 409 
Q 2484 409 2743 651 
Q 3003 894 3003 1313 
Q 3003 1734 2745 1975 
Q 2488 2216 2034 2216 
z
M 1403 2484 
Q 997 2584 770 2862 
Q 544 3141 544 3541 
Q 544 4100 942 4425 
Q 1341 4750 2034 4750 
Q 2731 4750 3128 4425 
Q 3525 4100 3525 3541 
Q 3525 3141 3298 2862 
Q 3072 2584 2669 2484 
Q 3125 2378 3379 2068 
Q 3634 1759 3634 1313 
Q 3634 634 3220 271 
Q 2806 -91 2034 -91 
Q 1263 -91 848 271 
Q 434 634 434 1313 
Q 434 1759 690 2068 
Q 947 2378 1403 2484 
z
M 1172 3481 
Q 1172 3119 1398 2916 
Q 1625 2713 2034 2713 
Q 2441 2713 2670 2916 
Q 2900 3119 2900 3481 
Q 2900 3844 2670 4047 
Q 2441 4250 2034 4250 
Q 1625 4250 1398 4047 
Q 1172 3844 1172 3481 
z
" transform="scale(0.015625)"/>
       </defs>
       <use xlink:href="#DejaVuSans-38"/>
       <use xlink:href="#DejaVuSans-30" x="63.623047"/>
      </g>
     </g>
    </g>
    <g id="text_14">
     <!-- time $t$ (ps) -->
     <g transform="translate(14.8 166.406) rotate(-90) scale(0.1 -0.1)">
      <defs>
       <path id="DejaVuSans-74" d="M 1172 4494 
L 1172 3500 
L 2356 3500 
L 2356 3053 
L 1172 3053 
L 1172 1153 
Q 1172 725 1289 603 
Q 1406 481 1766 481 
L 2356 481 
L 2356 0 
L 1766 0 
Q 1100 0 847 248 
Q 594 497 594 1153 
L 594 3053 
L 172 3053 
L 172 3500 
L 594 3500 
L 594 4494 
L 1172 4494 
z
" transform="scale(0.015625)"/>
       <path id="DejaVuSans-69" d="M 603 3500 
L 1178 3500 
L 1178 0 
L 603 0 
L 603 3500 
z
M 603 4863 
L 1178 4863 
L 1178 4134 
L 603 4134 
L 603 4863 
z
" transform="scale(0.015625)"/>
       <path id="DejaVuSans-6d" d="M 3328 2828 
Q 3544 3216 3844 3400 
Q 4144 3584 4550 3584 
Q 5097 3584 5394 3201 
Q 5691 2819 5691 2113 
L 5691 0 
L 5113 0 
L 5113 2094 
Q 5113 2597 4934 2840 
Q 4756 3084 4391 3084 
Q 3944 3084 3684 2787 
Q 3425 2491 3425 1978 
L 3425 0 
L 2847 0 
L 2847 2094 
Q 2847 2600 2669 2842 
Q 2491 3084 2119 3084 
Q 1678 3084 1418 2786 
Q 1159 2488 1159 1978 
L 1159 0 
L 581 0 
L 581 3500 
L 1159 3500 
L 1159 2956 
Q 1356 3278 1631 3431 
Q 1906 3584 2284 3584 
Q 2666 3584 2933 3390 
Q 3200 3197 3328 2828 
z
" transform="scale(0.015625)"/>
       <path id="DejaVuSans-65" d="M 3597 1894 
L 3597 1613 
L 953 1613 
Q 991 1019 1311 708 
Q 1631 397 2203 397 
Q 2534 397 2845 478 
Q 3156 559 3463 722 
L 3463 178 
Q 3153 47 2828 -22 
Q 2503 -91 2169 -91 
Q 1331 -91 842 396 
Q 353 884 353 1716 
Q 353 2575 817 3079 
Q 1281 3584 2069 3584 
Q 2775 3584 3186 3129 
Q 3597 2675 3597 1894 
z
M 3022 2063 
Q 3016 2534 2758 2815 
Q 2500 3097 2075 3097 
Q 1594 3097 1305 2825 
Q 1016 2553 972 2059 
L 3022 2063 
z
" transform="scale(0.015625)"/>
       <path id="DejaVuSans-20" transform="scale(0.015625)"/>
       <path id="DejaVuSans-Oblique-74" d="M 2706 3500 
L 2619 3053 
L 1472 3053 
L 1100 1153 
Q 1081 1047 1072 975 
Q 1063 903 1063 863 
Q 1063 663 1183 572 
Q 1303 481 1569 481 
L 2150 481 
L 2053 0 
L 1503 0 
Q 991 0 739 200 
Q 488 400 488 806 
Q 488 878 497 964 
Q 506 1050 525 1153 
L 897 3053 
L 409 3053 
L 500 3500 
L 978 3500 
L 1172 4494 
L 1747 4494 
L 1556 3500 
L 2706 3500 
z
" transform="scale(0.015625)"/>
       <path id="DejaVuSans-28" d="M 1984 4856 
Q 1566 4138 1362 3434 
Q 1159 2731 1159 2009 
Q 1159 1288 1364 580 
Q 1569 -128 1984 -844 
L 1484 -844 
Q 1016 -109 783 600 
Q 550 1309 550 2009 
Q 550 2706 781 3412 
Q 1013 4119 1484 4856 
L 1984 4856 
z
" transform="scale(0.015625)"/>
       <path id="DejaVuSans-70" d="M 1159 525 
L 1159 -1331 
L 581 -1331 
L 581 3500 
L 1159 3500 
L 1159 2969 
Q 1341 3281 1617 3432 
Q 1894 3584 2278 3584 
Q 2916 3584 3314 3078 
Q 3713 2572 3713 1747 
Q 3713 922 3314 415 
Q 2916 -91 2278 -91 
Q 1894 -91 1617 61 
Q 1341 213 1159 525 
z
M 3116 1747 
Q 3116 2381 2855 2742 
Q 2594 3103 2138 3103 
Q 1681 3103 1420 2742 
Q 1159 2381 1159 1747 
Q 1159 1113 1420 752 
Q 1681 391 2138 391 
Q 2594 391 2855 752 
Q 3116 1113 3116 1747 
z
" transform="scale(0.015625)"/>
       <path id="DejaVuSans-73" d="M 2834 3397 
L 2834 2853 
Q 2591 2978 2328 3040 
Q 2066 3103 1784 3103 
Q 1356 3103 1142 2972 
Q 928 2841 928 2578 
Q 928 2378 1081 2264 
Q 1234 2150 1697 2047 
L 1894 2003 
Q 2506 1872 2764 1633 
Q 3022 1394 3022 966 
Q 3022 478 2636 193 
Q 2250 -91 1575 -91 
Q 1294 -91 989 -36 
Q 684 19 347 128 
L 347 722 
Q 666 556 975 473 
Q 1284 391 1588 391 
Q 1994 391 2212 530 
Q 2431 669 2431 922 
Q 2431 1156 2273 1281 
Q 2116 1406 1581 1522 
L 1381 1569 
Q 847 1681 609 1914 
Q 372 2147 372 2553 
Q 372 3047 722 3315 
Q 1072 3584 1716 3584 
Q 2034 3584 2315 3537 
Q 2597 3491 2834 3397 
z
" transform="scale(0.015625)"/>
       <path id="DejaVuSans-29" d="M 513 4856 
L 1013 4856 
Q 1481 4119 1714 3412 
Q 1947 2706 1947 2009 
Q 1947 1309 1714 600 
Q 1481 -109 1013 -844 
L 513 -844 
Q 928 -128 1133 580 
Q 1338 1288 1338 2009 
Q 1338 2731 1133 3434 
Q 928 4138 513 4856 
z
" transform="scale(0.015625)"/>
      </defs>
      <use xlink:href="#DejaVuSans-74" transform="translate(0 0.015625)"/>
      <use xlink:href="#DejaVuSans-69" transform="translate(39.208984 0.015625)"/>
      <use xlink:href="#DejaVuSans-6d" transform="translate(66.992188 0.015625)"/>
      <use xlink:href="#DejaVuSans-65" transform="translate(164.404297 0.015625)"/>
      <use xlink:href="#DejaVuSans-20" transform="translate(225.927734 0.015625)"/>
      <use xlink:href="#DejaVuSans-Oblique-74" transform="translate(257.714844 0.015625)"/>
      <use xlink:href="#DejaVuSans-20" transform="translate(296.923828 0.015625)"/>
      <use xlink:href="#DejaVuSans-28" transform="translate(328.710938 0.015625)"/>
      <use xlink:href="#DejaVuSans-70" transform="translate(367.724609 0.015625)"/>
      <use xlink:href="#DejaVuSans-73" transform="translate(431.201172 0.015625)"/>
      <use xlink:href="#DejaVuSans-29" transform="translate(483.300781 0.015625)"/>
     </g>
    </g>
   </g>
   <g id="line2d_27">
    <path d="M 65.237415 162.757904 
L 72.295122 84.626361 
L 79.35283 100.821578 
L 86.410537 102.268061 
L 93.468245 95.650967 
L 100.525952 55.46041 
L 107.58366 104.416831 
L 114.641367 75.06515 
L 121.699075 82.474655 
L 128.756782 83.607423 
L 135.81449 73.881049 
L 142.872197 81.908821 
L 149.929905 73.329004 
L 156.987612 71.179478 
L 164.04532 67.38453 
L 171.103027 57.387212 
L 178.160735 60.695351 
L 185.218442 72.176813 
L 192.27615 75.697353 
L 199.333857 59.281258 
L 206.391565 90.406022 
L 213.449272 72.573411 
L 220.50698 66.708058 
L 227.564688 28.663241 
L 234.622395 89.055377 
L 241.680103 55.709357 
L 248.73781 23.52265 
L 255.795518 41.042515 
L 262.853225 46.417103 
L 269.910933 64.54003 
L 276.96864 76.090683 
L 284.026348 48.759281 
L 291.084055 70.614576 
L 298.141763 90.243484 
L 305.19947 76.01859 
L 312.257178 31.885095 
L 319.314885 63.069881 
L 326.372593 61.233931 
L 333.4303 67.923274 
L 340.488008 41.427714 
L 347.545715 67.640199 
L 354.603423 35.529943 
L 361.66113 25.379119 
L 368.718838 26.426976 
L 375.776545 41.086731 
L 382.834253 19.296 
L 389.89196 24.605481 
" clip-path="url(#p397b30a95f)" style="fill: none; stroke: #1f77b4; stroke-width: 1.5; stroke-linecap: square"/>
   </g>
   <g id="line2d_28">
    <path d="M 65.237415 162.757904 
L 72.295122 225.01132 
L 79.35283 207.647047 
L 86.410537 203.899717 
L 93.468245 217.890394 
L 100.525952 233.973247 
L 107.58366 212.290048 
L 114.641367 227.878312 
L 121.699075 214.07926 
L 128.756782 215.793757 
L 135.81449 234.540701 
L 142.872197 226.988145 
L 149.929905 232.624086 
L 156.987612 236.743386 
L 164.04532 239.529689 
L 171.103027 237.344658 
L 178.160735 232.279338 
L 185.218442 232.389306 
L 192.27615 225.248452 
L 199.333857 238.732312 
L 206.391565 228.057564 
L 213.449272 230.211814 
L 220.50698 230.70165 
L 227.564688 261.216 
L 234.622395 213.650468 
L 241.680103 242.907634 
L 248.73781 260.243609 
L 255.795518 242.019827 
L 262.853225 239.758579 
L 269.910933 236.123202 
L 276.96864 219.006454 
L 284.026348 246.988888 
L 291.084055 228.014621 
L 298.141763 222.56468 
L 305.19947 227.502835 
L 312.257178 259.08646 
L 319.314885 225.215258 
L 326.372593 242.040993 
L 333.4303 232.351288 
L 340.488008 239.349085 
L 347.545715 225.422704 
L 354.603423 255.520743 
L 361.66113 249.851249 
L 368.718838 249.017808 
L 375.776545 246.28631 
L 382.834253 255.541815 
L 389.89196 254.49467 
" clip-path="url(#p397b30a95f)" style="fill: none; stroke: #ff7f0e; stroke-width: 1.5; stroke-linecap: square"/>
   </g>
   <g id="line2d_29">
    <path d="M 65.237415 162.757904 
L 72.295122 176.400275 
L 79.35283 178.60924 
L 86.410537 181.284087 
L 93.468245 172.59734 
L 100.525952 197.607434 
L 107.58366 169.500862 
L 114.641367 183.431175 
L 121.699075 191.049769 
L 128.756782 187.898377 
L 135.81449 177.179179 
L 142.872197 177.084465 
L 149.929905 179.945972 
L 156.987612 177.597016 
L 164.04532 178.535291 
L 171.103027 191.731775 
L 178.160735 193.891935 
L 185.218442 181.44651 
L 192.27615 185.722006 
L 199.333857 188.135605 
L 206.391565 166.757639 
L 213.449272 183.476709 
L 220.50698 189.220789 
L 227.564688 195.638608 
L 234.622395 184.464471 
L 241.680103 187.252294 
L 248.73781 202.254108 
L 255.795518 204.016811 
L 262.853225 200.794836 
L 269.910933 185.4348 
L 276.96864 192.349217 
L 284.026348 190.112748 
L 291.084055 188.061543 
L 298.141763 173.131368 
L 305.19947 182.834959 
L 312.257178 194.577631 
L 319.314885 199.320326 
L 326.372593 182.299827 
L 333.4303 186.051741 
L 340.488008 206.619004 
L 347.545715 194.18218 
L 354.603423 194.693617 
L 361.66113 211.99289 
L 368.718838 211.809884 
L 375.776545 199.147273 
L 382.834253 212.104932 
L 389.89196 207.585964 
" clip-path="url(#p397b30a95f)" style="fill: none; stroke: #2ca02c; stroke-width: 1.5; stroke-linecap: square"/>
   </g>
   <g id="line2d_30">
    <path d="M 65.237415 162.757904 
L 72.295122 94.784216 
L 79.35283 114.411846 
L 86.410537 119.903644 
L 93.468245 101.14817 
L 100.525952 98.372594 
L 107.58366 100.675987 
L 114.641367 100.921258 
L 121.699075 109.450906 
L 128.756782 112.066112 
L 135.81449 82.513674 
L 142.872197 85.918944 
L 149.929905 80.486478 
L 156.987612 82.346752 
L 164.04532 75.053762 
L 171.103027 80.031344 
L 178.160735 94.141746 
L 185.218442 81.396303 
L 192.27615 94.442937 
L 199.333857 81.579551 
L 206.391565 86.932011 
L 213.449272 89.061339 
L 220.50698 89.49377 
L 227.564688 67.314905 
L 234.622395 104.422341 
L 241.680103 77.831901 
L 248.73781 74.622981 
L 255.795518 82.652947 
L 262.853225 86.278553 
L 269.910933 71.724347 
L 276.96864 101.855481 
L 284.026348 75.298846 
L 291.084055 95.022792 
L 298.141763 80.781299 
L 305.19947 84.549994 
L 312.257178 67.030094 
L 319.314885 85.927409 
L 326.372593 72.806204 
L 333.4303 78.867883 
L 340.488008 89.913542 
L 347.545715 97.593894 
L 354.603423 63.728961 
L 361.66113 87.162092 
L 368.718838 78.958469 
L 375.776545 74.628278 
L 382.834253 77.051495 
L 389.89196 79.294608 
" clip-path="url(#p397b30a95f)" style="fill: none; stroke: #d62728; stroke-width: 1.5; stroke-linecap: square"/>
   </g>
   <g id="line2d_31">
    <path d="M 65.237415 162.757904 
L 72.295122 172.624607 
L 79.35283 169.117213 
L 86.410537 166.943538 
L 93.468245 173.091563 
L 100.525952 158.948567 
L 107.58366 179.639135 
L 114.641367 162.618811 
L 121.699075 167.811609 
L 128.756782 163.018106 
L 135.81449 176.245372 
L 142.872197 180.512074 
L 149.929905 180.582855 
L 156.987612 174.065031 
L 164.04532 179.299746 
L 171.103027 176.034039 
L 178.160735 165.54753 
L 185.218442 179.810076 
L 192.27615 172.757257 
L 199.333857 172.791883 
L 206.391565 178.211431 
L 213.449272 173.496101 
L 220.50698 172.484587 
L 227.564688 164.746021 
L 234.622395 173.950955 
L 241.680103 172.541485 
L 248.73781 157.543317 
L 255.795518 168.044124 
L 262.853225 166.385442 
L 269.910933 186.717549 
L 276.96864 171.089119 
L 284.026348 171.017404 
L 291.084055 169.127161 
L 298.141763 191.055705 
L 305.19947 181.497048 
L 312.257178 167.356455 
L 319.314885 182.403371 
L 326.372593 179.141213 
L 333.4303 182.708151 
L 340.488008 162.717148 
L 347.545715 169.009178 
L 354.603423 174.908356 
L 361.66113 154.551046 
L 368.718838 164.707643 
L 375.776545 172.525857 
L 382.834253 159.848242 
L 389.89196 158.444243 
" clip-path="url(#p397b30a95f)" style="fill: none; stroke: #9467bd; stroke-width: 1.5; stroke-linecap: square"/>
   </g>
   <g id="line2d_32">
    <path d="M 65.237415 162.757904 
L 72.295122 136.969715 
L 79.35283 138.555537 
L 86.410537 138.137192 
L 93.468245 140.524564 
L 100.525952 129.632069 
L 107.58366 136.463378 
L 114.641367 140.713813 
L 121.699075 126.668781 
L 128.756782 135.463818 
L 135.81449 132.046309 
L 142.872197 127.330843 
L 149.929905 124.177885 
L 156.987612 134.059259 
L 164.04532 127.14014 
L 171.103027 116.653999 
L 178.160735 126.174823 
L 185.218442 123.438354 
L 192.27615 126.806451 
L 199.333857 124.176021 
L 206.391565 141.021669 
L 213.449272 128.387426 
L 220.50698 123.359595 
L 227.564688 125.201566 
L 234.622395 126.81013 
L 241.680103 125.410248 
L 248.73781 126.227695 
L 255.795518 112.480861 
L 262.853225 117.809902 
L 269.910933 111.35651 
L 276.96864 121.573249 
L 284.026348 124.055433 
L 291.084055 128.393421 
L 298.141763 119.676706 
L 305.19947 120.045704 
L 312.257178 123.397217 
L 319.314885 101.31656 
L 326.372593 123.281138 
L 333.4303 115.223846 
L 340.488008 115.697489 
L 347.545715 121.951976 
L 354.603423 114.746594 
L 361.66113 119.14351 
L 368.718838 107.87218 
L 375.776545 112.651835 
L 382.834253 113.045743 
L 389.89196 119.478615 
" clip-path="url(#p397b30a95f)" style="fill: none; stroke: #8c564b; stroke-width: 1.5; stroke-linecap: square"/>
   </g>
   <g id="patch_3">
    <path d="M 49.004688 273.312 
L 49.004688 7.2 
" style="fill: none; stroke: #000000; stroke-width: 0.8; stroke-linejoin: miter; stroke-linecap: square"/>
   </g>
   <g id="patch_4">
    <path d="M 406.124688 273.312 
L 406.124688 7.2 
" style="fill: none; stroke: #000000; stroke-width: 0.8; stroke-linejoin: miter; stroke-linecap: square"/>
   </g>
   <g id="patch_5">
    <path d="M 49.004688 273.312 
L 406.124688 273.312 
" style="fill: none; stroke: #000000; stroke-width: 0.8; stroke-linejoin: miter; stroke-linecap: square"/>
   </g>
   <g id="patch_6">
    <path d="M 49.004688 7.2 
L 406.124688 7.2 
" style="fill: none; stroke: #000000; stroke-width: 0.8; stroke-linejoin: miter; stroke-linecap: square"/>
   </g>
   <g id="legend_1">
    <g id="patch_7">
     <path d="M 56.004688 117.946875 
L 100.729688 117.946875 
Q 102.729688 117.946875 102.729688 115.946875 
L 102.729688 14.2 
Q 102.729688 12.2 100.729688 12.2 
L 56.004688 12.2 
Q 54.004688 12.2 54.004688 14.2 
L 54.004688 115.946875 
Q 54.004688 117.946875 56.004688 117.946875 
z
" style="fill: #ffffff; opacity: 0.8; stroke: #cccccc; stroke-linejoin: miter"/>
    </g>
    <g id="text_15">
     <!-- ij -->
     <g transform="translate(75.589063 23.798437) scale(0.1 -0.1)">
      <defs>
       <path id="DejaVuSans-6a" d="M 603 3500 
L 1178 3500 
L 1178 -63 
Q 1178 -731 923 -1031 
Q 669 -1331 103 -1331 
L -116 -1331 
L -116 -844 
L 38 -844 
Q 366 -844 484 -692 
Q 603 -541 603 -63 
L 603 3500 
z
M 603 4863 
L 1178 4863 
L 1178 4134 
L 603 4134 
L 603 4863 
z
" transform="scale(0.015625)"/>
      </defs>
      <use xlink:href="#DejaVuSans-69"/>
      <use xlink:href="#DejaVuSans-6a" x="27.783203"/>
     </g>
    </g>
    <g id="line2d_33">
     <path d="M 58.004688 34.976562 
L 68.004688 34.976562 
L 78.004688 34.976562 
" style="fill: none; stroke: #1f77b4; stroke-width: 1.5; stroke-linecap: square"/>
    </g>
    <g id="text_16">
     <!-- 00 -->
     <g transform="translate(86.004688 38.476562) scale(0.1 -0.1)">
      <use xlink:href="#DejaVuSans-30"/>
      <use xlink:href="#DejaVuSans-30" x="63.623047"/>
     </g>
    </g>
    <g id="line2d_34">
     <path d="M 58.004688 49.654687 
L 68.004688 49.654687 
L 78.004688 49.654687 
" style="fill: none; stroke: #ff7f0e; stroke-width: 1.5; stroke-linecap: square"/>
    </g>
    <g id="text_17">
     <!-- 01 -->
     <g transform="translate(86.004688 53.154687) scale(0.1 -0.1)">
      <use xlink:href="#DejaVuSans-30"/>
      <use xlink:href="#DejaVuSans-31" x="63.623047"/>
     </g>
    </g>
    <g id="line2d_35">
     <path d="M 58.004688 64.332812 
L 68.004688 64.332812 
L 78.004688 64.332812 
" style="fill: none; stroke: #2ca02c; stroke-width: 1.5; stroke-linecap: square"/>
    </g>
    <g id="text_18">
     <!-- 02 -->
     <g transform="translate(86.004688 67.832812) scale(0.1 -0.1)">
      <use xlink:href="#DejaVuSans-30"/>
      <use xlink:href="#DejaVuSans-32" x="63.623047"/>
     </g>
    </g>
    <g id="line2d_36">
     <path d="M 58.004688 79.010937 
L 68.004688 79.010937 
L 78.004688 79.010937 
" style="fill: none; stroke: #d62728; stroke-width: 1.5; stroke-linecap: square"/>
    </g>
    <g id="text_19">
     <!-- 11 -->
     <g transform="translate(86.004688 82.510937) scale(0.1 -0.1)">
      <use xlink:href="#DejaVuSans-31"/>
      <use xlink:href="#DejaVuSans-31" x="63.623047"/>
     </g>
    </g>
    <g id="line2d_37">
     <path d="M 58.004688 93.689062 
L 68.004688 93.689062 
L 78.004688 93.689062 
" style="fill: none; stroke: #9467bd; stroke-width: 1.5; stroke-linecap: square"/>
    </g>
    <g id="text_20">
     <!-- 12 -->
     <g transform="translate(86.004688 97.189062) scale(0.1 -0.1)">
      <use xlink:href="#DejaVuSans-31"/>
      <use xlink:href="#DejaVuSans-32" x="63.623047"/>
     </g>
    </g>
    <g id="line2d_38">
     <path d="M 58.004688 108.367187 
L 68.004688 108.367187 
L 78.004688 108.367187 
" style="fill: none; stroke: #8c564b; stroke-width: 1.5; stroke-linecap: square"/>
    </g>
    <g id="text_21">
     <!-- 22 -->
     <g transform="translate(86.004688 111.867187) scale(0.1 -0.1)">
      <use xlink:href="#DejaVuSans-32"/>
      <use xlink:href="#DejaVuSans-32" x="63.623047"/>
     </g>
    </g>
   </g>
  </g>
 </g>
 <defs>
  <clipPath id="p397b30a95f">
   <rect x="49.004688" y="7.2" width="357.12" height="266.112"/>
  </clipPath>
 </defs>
</svg>
